<?xml version="1.0" encoding="utf-8"?>
<!-- Generator: Adobe Illustrator 24.3.0, SVG Export Plug-In . SVG Version: 6.00 Build 0)  -->
<svg version="1.1" id="Layer_1" focusable="false" xmlns="http://www.w3.org/2000/svg" xmlns:xlink="http://www.w3.org/1999/xlink"
	 x="0px" y="0px" viewBox="0 0 576 616" style="enable-background:new 0 0 576 616;" xml:space="preserve">
<style type="text/css">
	.st0{fill:#BA002A;}
</style>
<path class="st0" d="M124.6,244.3l28.8,347.1c0.8,9.3,10.3,17,21.3,17h239.5c10.9,0,20.5-7.5,21.3-17L464,244.3H124.6z M213.7,560
	c-4.7,0.4-8.9-3.2-9.1-7.9L188,301.9c-0.4-4.7,3.2-8.9,7.9-9.1c0.2,0,0.4,0,0.6,0c4.5,0,8.3,3.4,8.7,8.1l16.6,250.2
	C222,555.6,218.4,559.8,213.7,560z M305.5,551.7c0,4.7-3.8,8.7-8.7,8.7c-4.7,0-8.7-3.8-8.7-8.7V301.1c0-4.7,3.8-8.5,8.7-8.5
	c2.4,0,4.5,1,6.1,2.6s2.6,3.6,2.6,6.1V551.7z M383.9,552.1c-0.4,4.7-4.5,8.3-9.1,7.9c-4.7-0.2-8.3-4.5-8.1-9.1l16.6-250.2
	c0.2-4.5,4.1-8.1,8.7-8.1c0.2,0,0.4,0,0.6,0c4.7,0.4,8.3,4.5,8.1,9.1L383.9,552.1z M143.6,211.7L414.9,48c9.7-5.9,13-18.6,7.1-28.4
	l-1-1.6c-5.9-9.7-18.6-13-28.4-7.1l-80.4,48.4l-16-26.5c-9.1-15-28.8-19.9-43.8-10.7l-55.9,33.8c-15,9.1-19.9,28.6-10.7,43.8
	l16,26.5l-80.2,48.4c-9.7,5.9-13,18.6-7.1,28.4l1,1.6C121.1,214.4,133.9,217.6,143.6,211.7z M208,75.2l56-33.9
	c4.5-2.6,10.3-1.2,13,3.2L293,71l-72.1,43.6l-16-26.5C202.2,83.7,203.6,77.8,208,75.2z"/>
</svg>
