<?xml version="1.0" encoding="utf-8"?>
<!-- Generator: Adobe Illustrator 24.3.0, SVG Export Plug-In . SVG Version: 6.00 Build 0)  -->
<svg version="1.1" id="Layer_1" focusable="false" xmlns="http://www.w3.org/2000/svg" xmlns:xlink="http://www.w3.org/1999/xlink"
	 x="0px" y="0px" viewBox="0 0 576 512" style="enable-background:new 0 0 576 512;" xml:space="preserve">
<style type="text/css">
	.st0{fill:#BA002A;}
</style>
<path class="st0" d="M329.1,33.6c-8-13.5-21.9-21.7-37.6-21.7c-0.2,0-0.2,0-0.4,0c-15.5,0-29.4,8-37.6,21L11.5,432.4
	c-8.4,13.7-8.6,30.2-0.8,44.3c8,14.1,22.3,22.3,38.2,22.3h476.4c15.9,0,30.2-8.2,38-22.1c7.8-13.9,7.8-30.2-0.2-43.9L329.1,33.6z
	 M287.1,416.5c-14.3,0-25.9-11.6-25.9-25.9c0-14.3,11.6-25.9,25.9-25.9s25.9,11.6,25.9,25.9C313,404.8,301.4,416.5,287.1,416.5z
	 M320.2,193.2l-13.3,127.5c-0.8,8.6-9.4,15.1-19.6,15.1s-18.8-6.5-19.6-15.1l-13.3-127.5c-1-9.6,8.2-18,19.6-18h26.8
	C312,175.2,321.2,183.6,320.2,193.2z"/>
</svg>
